<?xml version="1.0" standalone="no"?>
<!DOCTYPE svg PUBLIC "-//W3C//DTD SVG 20010904//EN"
 "http://www.w3.org/TR/2001/REC-SVG-20010904/DTD/svg10.dtd">
<svg version="1.0" xmlns="http://www.w3.org/2000/svg"
 width="260.000000pt" height="260.000000pt" viewBox="0 0 260.000000 260.000000"
 preserveAspectRatio="xMidYMid meet">
<metadata>
Created by potrace 1.14, written by Peter Selinger 2001-2017
</metadata>
<g transform="translate(0.000000,260.000000) scale(0.100000,-0.100000)"
fill="#000000" stroke="none">
<path d="M410 2191 c-148 -38 -258 -119 -312 -229 -29 -59 -33 -77 -35 -157
-2 -103 15 -160 71 -236 55 -75 157 -142 392 -258 142 -71 244 -128 288 -163
133 -105 184 -232 157 -396 -31 -194 -172 -323 -373 -340 -166 -15 -326 34
-434 131 -84 76 -129 197 -133 360 -1 20 -5 37 -11 37 -6 0 -10 -74 -10 -201
0 -131 3 -198 10 -194 5 3 10 21 11 38 0 18 4 41 8 51 7 17 13 12 50 -38 73
-99 187 -168 325 -198 29 -6 103 -8 175 -6 102 4 141 10 206 32 184 63 296
159 356 307 31 77 35 237 8 316 -25 74 -69 141 -127 195 -90 84 -112 96 -494
276 -228 108 -308 193 -313 336 -5 158 94 284 252 321 100 24 182 17 267 -23
159 -74 228 -202 235 -435 1 -16 5 -26 11 -22 6 4 10 82 10 201 0 123 -4 194
-10 194 -5 0 -10 -10 -11 -22 -1 -32 -8 -71 -15 -77 -3 -3 -15 8 -27 24 -60
87 -148 151 -246 181 -61 18 -200 16 -281 -5z"/>
<path d="M1144 2169 c-7 -12 8 -17 57 -17 60 -1 94 -15 115 -48 17 -25 18 -81
18 -805 0 -621 -3 -783 -13 -802 -17 -32 -54 -48 -121 -52 -30 -2 -56 -8 -58
-14 -3 -8 87 -11 292 -11 191 0 296 4 296 10 0 6 -10 10 -22 11 -48 1 -102 10
-119 20 -50 26 -51 33 -52 439 l-2 380 143 0 c167 0 187 -6 257 -81 59 -63
114 -180 160 -339 20 -69 51 -152 68 -184 42 -78 116 -158 182 -196 67 -39
245 -76 245 -52 0 5 -18 14 -39 21 -92 27 -182 164 -246 375 -54 180 -109 276
-200 351 -54 44 -168 105 -198 106 -12 0 15 9 61 19 242 55 404 210 416 396
10 169 -89 318 -268 403 -142 68 -183 73 -599 75 -203 1 -370 -2 -373 -5z
m733 -29 c197 -60 312 -226 301 -434 -5 -102 -42 -186 -117 -268 -99 -108
-182 -138 -383 -138 -124 0 -138 2 -139 18 -1 19 -1 785 0 817 1 19 7 20 151
18 82 -1 167 -7 187 -13z"/>
</g>
</svg>
